<?xml version="1.0" standalone="no"?>
<!DOCTYPE svg PUBLIC "-//W3C//DTD SVG 20010904//EN"
 "http://www.w3.org/TR/2001/REC-SVG-20010904/DTD/svg10.dtd">
<svg version="1.0" xmlns="http://www.w3.org/2000/svg"
 width="637.000000pt" height="252.000000pt" viewBox="0 0 637.000000 252.000000"
 preserveAspectRatio="xMidYMid meet">

<g transform="translate(0.000000,252.000000) scale(0.100000,-0.100000)"
fill="#000000" stroke="none">
<path d="M1927 1990 c-119 -20 -248 -122 -305 -240 -77 -160 -59 -328 59 -532
41 -72 49 -94 44 -118 -8 -38 -49 -70 -89 -70 -29 0 -45 8 -107 52 -62 43
-142 25 -187 -42 -21 -30 -23 -44 -19 -96 20 -264 371 -383 626 -213 122 81
191 215 191 368 0 135 -32 220 -119 315 -85 94 -94 167 -28 222 38 32 75 29
135 -11 37 -24 42 -25 86 -14 67 17 106 64 106 130 0 62 -24 110 -82 165 -52
50 -85 68 -156 83 -59 12 -85 12 -155 1z"/>
<path d="M2660 1942 c-139 -46 -237 -152 -275 -299 -12 -46 -15 -134 -15 -454
0 -395 0 -396 23 -430 12 -18 38 -44 57 -57 30 -20 44 -23 102 -20 76 4 110
23 143 79 19 32 20 57 25 410 5 353 6 378 24 398 12 13 31 21 51 21 20 0 39
-8 51 -21 18 -20 19 -45 24 -398 4 -332 7 -380 22 -408 28 -51 74 -77 144 -81
68 -5 106 10 148 55 44 47 49 104 43 503 -5 386 -10 427 -59 523 -33 66 -103
132 -171 163 -54 25 -76 29 -172 31 -85 2 -122 -1 -165 -15z"/>
<path d="M4414 1941 c-42 -26 -72 -66 -85 -114 -15 -55 -6 -785 10 -846 20
-73 58 -144 105 -193 77 -81 85 -83 296 -83 161 0 190 2 223 19 108 53 117
215 15 287 -28 20 -44 23 -130 24 -93 0 -99 1 -125 28 l-28 28 0 383 c0 374
-1 385 -21 413 -41 55 -80 73 -158 73 -52 0 -79 -5 -102 -19z"/>
<path d="M3621 1375 c-143 -40 -256 -199 -235 -330 8 -50 16 -65 76 -144 27
-35 47 -68 45 -75 -2 -6 -21 -13 -43 -16 -33 -4 -39 -9 -42 -30 -4 -33 34 -69
85 -81 21 -5 79 -9 128 -9 131 0 135 4 135 131 0 98 0 100 -26 109 -14 6 -39
10 -55 10 -45 0 -89 48 -89 95 0 105 155 132 189 33 6 -17 11 -97 11 -178 0
-181 1 -183 97 -188 55 -3 80 0 120 18 59 25 131 96 167 164 32 61 33 100 4
120 -29 21 -44 20 -67 -3 -15 -15 -18 -28 -14 -59 10 -75 -53 -103 -125 -56
-34 22 -38 42 -13 72 48 61 64 103 58 158 -19 184 -218 311 -406 259z"/>
<path d="M4120 1140 c-38 -38 -18 -90 35 -90 70 0 90 66 28 99 -30 15 -40 14
-63 -9z"/>
</g>
</svg>
