<svg width="5000" height="5000" viewBox="0 0 5000 5000" fill="none" xmlns="http://www.w3.org/2000/svg">
<rect width="5000" height="5000" rx="1000" fill="white"/>
<path d="M1863.26 1276.65C1343.53 1422.03 932.838 1999.9 1009.16 2476.02C1038.24 2657.74 1067.31 2712.26 1285.38 2999.38C1383.51 3126.58 1456.2 3246.52 1448.93 3271.96C1441.66 3293.77 1372.61 3319.21 1292.65 3330.11C1172.71 3344.65 1150.91 3362.82 1140 3439.15C1125.46 3559.08 1263.57 3689.92 1448.93 3733.54C1525.25 3751.71 1736.05 3766.25 1914.14 3766.25C2390.25 3766.25 2404.79 3751.71 2404.79 3290.13C2404.79 2933.96 2404.79 2926.69 2310.29 2893.98C2259.41 2872.17 2168.55 2857.63 2110.4 2857.63C1946.85 2857.63 1786.93 2683.18 1786.93 2512.36C1786.93 2130.74 2350.27 2032.61 2473.85 2392.42C2495.65 2454.21 2513.82 2744.97 2513.82 3039.36C2513.82 3697.19 2517.46 3704.46 2866.37 3722.63C3066.26 3733.54 3157.12 3722.63 3302.5 3657.21C3516.93 3566.35 3778.61 3308.31 3909.45 3061.16C4025.76 2839.46 4029.39 2697.72 3923.99 2625.03C3818.59 2548.71 3764.08 2552.34 3680.48 2635.93C3625.97 2690.45 3615.06 2737.7 3629.6 2850.36C3665.95 3122.95 3436.97 3224.71 3175.29 3053.89C3051.72 2973.94 3037.19 2901.25 3128.05 2792.21C3302.5 2570.51 3360.65 2417.86 3338.84 2217.97C3269.79 1549.23 2546.53 1087.66 1863.26 1276.65Z" fill="#FFCC3B"/>
</svg>
